<svg width="30" height="35" viewBox="0 0 30 35" fill="none" xmlns="http://www.w3.org/2000/svg">
    <path d="M8.04241 13.9486C7.78125 13.7544 7.52009 13.654 7.25893 13.654H6.09375V20.6518H7.26562C7.52679 20.6518 7.78795 20.5513 8.04911 20.3571C8.31027 20.1629 8.4375 19.8683 8.4375 19.4799V14.8125C8.4375 14.4241 8.30357 14.1294 8.04911 13.9352L8.04241 13.9486ZM27.0603 2.14282H2.93973C1.3192 2.14282 0.00669643 3.45532 0 5.07586V29.2098C0.00669643 30.8303 1.3192 32.1428 2.93973 32.1428H27.0603C28.6808 32.1428 29.9933 30.8303 30 29.2098V5.07586C29.9933 3.45532 28.6808 2.14282 27.0603 2.14282ZM10.3259 19.5C10.3259 20.7589 9.54911 22.6674 7.08482 22.6674H3.97768V11.5848H7.15179C9.52232 11.5848 10.3259 13.4933 10.3259 14.7522V19.5ZM17.0692 13.5602H13.5V16.1317H15.683V18.1138H13.5V20.6852H17.0692V22.6674H12.904C12.154 22.6875 11.5379 22.0982 11.5179 21.3482V12.9709C11.4978 12.2209 12.0937 11.6049 12.8371 11.5848H17.0692V13.5602ZM24.0067 21.2812C23.1228 23.3437 21.5357 22.9285 20.8326 21.2812L18.2545 11.5848H20.4375L22.4263 19.1986L24.4085 11.5848H26.5915L24.0134 21.2812H24.0067Z"/>
</svg>
