<svg width="30" height="30" viewBox="0 0 30 30" fill="none" xmlns="http://www.w3.org/2000/svg">
    <path d="M2.34375 2.8125C1.56445 2.8125 0.9375 3.43945 0.9375 4.21875V7.03125C0.9375 7.81055 1.56445 8.4375 2.34375 8.4375H5.15625C5.93555 8.4375 6.5625 7.81055 6.5625 7.03125V4.21875C6.5625 3.43945 5.93555 2.8125 5.15625 2.8125H2.34375ZM11.25 3.75C10.2129 3.75 9.375 4.58789 9.375 5.625C9.375 6.66211 10.2129 7.5 11.25 7.5H28.125C29.1621 7.5 30 6.66211 30 5.625C30 4.58789 29.1621 3.75 28.125 3.75H11.25ZM11.25 13.125C10.2129 13.125 9.375 13.9629 9.375 15C9.375 16.0371 10.2129 16.875 11.25 16.875H28.125C29.1621 16.875 30 16.0371 30 15C30 13.9629 29.1621 13.125 28.125 13.125H11.25ZM11.25 22.5C10.2129 22.5 9.375 23.3379 9.375 24.375C9.375 25.4121 10.2129 26.25 11.25 26.25H28.125C29.1621 26.25 30 25.4121 30 24.375C30 23.3379 29.1621 22.5 28.125 22.5H11.25ZM0.9375 13.5938V16.4062C0.9375 17.1855 1.56445 17.8125 2.34375 17.8125H5.15625C5.93555 17.8125 6.5625 17.1855 6.5625 16.4062V13.5938C6.5625 12.8145 5.93555 12.1875 5.15625 12.1875H2.34375C1.56445 12.1875 0.9375 12.8145 0.9375 13.5938ZM2.34375 21.5625C1.56445 21.5625 0.9375 22.1895 0.9375 22.9688V25.7812C0.9375 26.5605 1.56445 27.1875 2.34375 27.1875H5.15625C5.93555 27.1875 6.5625 26.5605 6.5625 25.7812V22.9688C6.5625 22.1895 5.93555 21.5625 5.15625 21.5625H2.34375Z"/>
</svg>
