<svg width="30" height="32" viewBox="0 0 30 32" fill="none" xmlns="http://www.w3.org/2000/svg">
    <g clip-path="url(#clip0_1_10)">
        <path d="M29.9896 15.5465C29.9896 16.6418 29.2083 17.4997 28.3229 17.4997H26.6563L26.6927 27.2474C26.6927 27.4117 26.6823 27.576 26.6667 27.7403V28.72C26.6667 30.0647 25.7344 31.1538 24.5833 31.1538H23.75C23.6927 31.1538 23.6354 31.1538 23.5781 31.1478C23.5052 31.1538 23.4323 31.1538 23.3594 31.1538H21.6667H20.4167C19.2656 31.1538 18.3333 30.0647 18.3333 28.72V27.2596V23.3654C18.3333 22.2884 17.5885 21.4183 16.6667 21.4183H13.3333C12.4115 21.4183 11.6667 22.2884 11.6667 23.3654V27.2596V28.72C11.6667 30.0647 10.7344 31.1538 9.58333 31.1538H8.33333H6.67188C6.59375 31.1538 6.51563 31.1478 6.4375 31.1417C6.375 31.1478 6.3125 31.1538 6.25 31.1538H5.41667C4.26563 31.1538 3.33333 30.0647 3.33333 28.72V21.905C3.33333 21.8503 3.33333 21.7894 3.33854 21.7347V17.4997H1.66667C0.729167 17.4997 0 16.6478 0 15.5465C0 14.9989 0.15625 14.5121 0.520833 14.0862L13.875 0.486779C14.2396 0.0608474 14.6563 0 15.0208 0C15.3854 0 15.8021 0.121695 16.1146 0.425931L29.4167 14.0862C29.8333 14.5121 30.0417 14.9989 29.9896 15.5465Z"/>
    </g>
    <defs>
        <clipPath id="clip0_1_10">
            <rect width="30" height="31.1538" fill="white"/>
        </clipPath>
    </defs>
</svg>
