<svg width="30" height="31" viewBox="0 0 30 31" fill="none" xmlns="http://www.w3.org/2000/svg">
    <path d="M22.1426 7.08008L29.3379 14.2754C29.7598 14.6973 30 15.2773 30 15.875C30 16.4727 29.7598 17.0527 29.3379 17.4746L22.1426 24.6699C21.7676 25.0449 21.2637 25.25 20.7363 25.25C19.6406 25.25 18.75 24.3594 18.75 23.2637V19.625H11.25C10.2129 19.625 9.375 18.7871 9.375 17.75V14C9.375 12.9629 10.2129 12.125 11.25 12.125H18.75V8.48633C18.75 7.39062 19.6406 6.5 20.7363 6.5C21.2637 6.5 21.7676 6.71094 22.1426 7.08008ZM9.375 6.5H5.625C4.58789 6.5 3.75 7.33789 3.75 8.375V23.375C3.75 24.4121 4.58789 25.25 5.625 25.25H9.375C10.4121 25.25 11.25 26.0879 11.25 27.125C11.25 28.1621 10.4121 29 9.375 29H5.625C2.51953 29 0 26.4805 0 23.375V8.375C0 5.26953 2.51953 2.75 5.625 2.75H9.375C10.4121 2.75 11.25 3.58789 11.25 4.625C11.25 5.66211 10.4121 6.5 9.375 6.5Z"/>
</svg>
