<svg width="30" height="24" viewBox="0 0 30 24" fill="none" xmlns="http://www.w3.org/2000/svg">
    <g clip-path="url(#clip0_3_31)">
        <path d="M12.8859 1.60776C11.5687 0.290576 9.4312 0.290576 8.11401 1.60776L1.60776 8.11401C0.290576 9.4312 0.290576 11.5687 1.60776 12.8859L8.11401 19.3921C9.4312 20.7093 11.5687 20.7093 12.8859 19.3921L19.3921 12.8859C20.7093 11.5687 20.7093 9.4312 19.3921 8.11401L12.8859 1.60776ZM9.37495 10.5C9.37495 10.2016 9.49348 9.91543 9.70446 9.70446C9.91543 9.49348 10.2016 9.37495 10.5 9.37495C10.7983 9.37495 11.0845 9.49348 11.2954 9.70446C11.5064 9.91543 11.625 10.2016 11.625 10.5C11.625 10.7983 11.5064 11.0845 11.2954 11.2954C11.0845 11.5064 10.7983 11.625 10.5 11.625C10.2016 11.625 9.91543 11.5064 9.70446 11.2954C9.49348 11.0845 9.37495 10.7983 9.37495 10.5ZM4.49995 9.37495C4.79832 9.37495 5.08447 9.49348 5.29545 9.70446C5.50642 9.91543 5.62495 10.2016 5.62495 10.5C5.62495 10.7983 5.50642 11.0845 5.29545 11.2954C5.08447 11.5064 4.79832 11.625 4.49995 11.625C4.20158 11.625 3.91543 11.5064 3.70446 11.2954C3.49348 11.0845 3.37495 10.7983 3.37495 10.5C3.37495 10.2016 3.49348 9.91543 3.70446 9.70446C3.91543 9.49348 4.20158 9.37495 4.49995 9.37495ZM10.5 17.625C10.2016 17.625 9.91543 17.5064 9.70446 17.2954C9.49348 17.0845 9.37495 16.7983 9.37495 16.5C9.37495 16.2016 9.49348 15.9154 9.70446 15.7045C9.91543 15.4935 10.2016 15.375 10.5 15.375C10.7983 15.375 11.0845 15.4935 11.2954 15.7045C11.5064 15.9154 11.625 16.2016 11.625 16.5C11.625 16.7983 11.5064 17.0845 11.2954 17.2954C11.0845 17.5064 10.7983 17.625 10.5 17.625ZM16.5 9.37495C16.7983 9.37495 17.0845 9.49348 17.2954 9.70446C17.5064 9.91543 17.625 10.2016 17.625 10.5C17.625 10.7983 17.5064 11.0845 17.2954 11.2954C17.0845 11.5064 16.7983 11.625 16.5 11.625C16.2016 11.625 15.9154 11.5064 15.7045 11.2954C15.4935 11.0845 15.375 10.7983 15.375 10.5C15.375 10.2016 15.4935 9.91543 15.7045 9.70446C15.9154 9.49348 16.2016 9.37495 16.5 9.37495ZM10.5 5.62495C10.2016 5.62495 9.91543 5.50642 9.70446 5.29545C9.49348 5.08447 9.37495 4.79832 9.37495 4.49995C9.37495 4.20158 9.49348 3.91543 9.70446 3.70446C9.91543 3.49348 10.2016 3.37495 10.5 3.37495C10.7983 3.37495 11.0845 3.49348 11.2954 3.70446C11.5064 3.91543 11.625 4.20158 11.625 4.49995C11.625 4.79832 11.5064 5.08447 11.2954 5.29545C11.0845 5.50642 10.7983 5.62495 10.5 5.62495ZM15 21C15 22.6546 16.3453 24 18 24H27C28.6546 24 30 22.6546 30 21V12C30 10.3453 28.6546 8.99995 27 8.99995H21.6421C22.1859 10.6875 21.7875 12.6093 20.4515 13.9453L15 19.3968V21ZM22.5 15.375C22.7983 15.375 23.0845 15.4935 23.2954 15.7045C23.5064 15.9154 23.625 16.2016 23.625 16.5C23.625 16.7983 23.5064 17.0845 23.2954 17.2954C23.0845 17.5064 22.7983 17.625 22.5 17.625C22.2016 17.625 21.9154 17.5064 21.7045 17.2954C21.4935 17.0845 21.375 16.7983 21.375 16.5C21.375 16.2016 21.4935 15.9154 21.7045 15.7045C21.9154 15.4935 22.2016 15.375 22.5 15.375Z"/>
    </g>
    <defs>
        <clipPath id="clip0_3_31">
            <rect width="30" height="24" fill="white"/>
        </clipPath>
    </defs>
</svg>
