<svg width="30" height="24" viewBox="0 0 30 24" fill="none" xmlns="http://www.w3.org/2000/svg">
    <g clip-path="url(#clip0_3_42)">
        <path d="M16.5844 2.53589L15.4781 0.295263C15.2953 -0.0937998 14.7234 -0.107862 14.5219 0.295263L13.4156 2.53589L10.9641 2.88745C10.5281 2.95307 10.3406 3.49214 10.6641 3.81558L12.4453 5.54995L12.0234 7.99214C11.9578 8.42807 12.4078 8.76557 12.8109 8.56401L15.0094 7.40151L17.1937 8.54526C17.5969 8.74683 18.0516 8.40933 17.9813 7.97339L17.5594 5.5312L19.3406 3.81558C19.6594 3.49683 19.4766 2.95776 19.0406 2.88745L16.5891 2.53589H16.5844ZM12 12C11.1703 12 10.5 12.6703 10.5 13.5V22.5C10.5 23.3296 11.1703 24 12 24H18C18.8297 24 19.5 23.3296 19.5 22.5V13.5C19.5 12.6703 18.8297 12 18 12H12ZM1.5 15C0.670312 15 0 15.6703 0 16.5V22.5C0 23.3296 0.670312 24 1.5 24H7.5C8.32969 24 9 23.3296 9 22.5V16.5C9 15.6703 8.32969 15 7.5 15H1.5ZM21 19.5V22.5C21 23.3296 21.6703 24 22.5 24H28.5C29.3297 24 30 23.3296 30 22.5V19.5C30 18.6703 29.3297 18 28.5 18H22.5C21.6703 18 21 18.6703 21 19.5Z"/>
    </g>
    <defs>
        <clipPath id="clip0_3_42">
            <rect width="30" height="24" fill="white"/>
        </clipPath>
    </defs>
</svg>
