<svg width="285" height="59" viewBox="0 0 285 59" fill="none" xmlns="http://www.w3.org/2000/svg">
    <path
            d="M270.203 21.7764L270.766 23.5H272.579H278.398H281.411L280.855 20.5383C280.379 18.0057 279.505 15.6683 278.219 13.5483C276.948 11.4364 275.352 9.61379 273.438 8.09412C271.536 6.55699 269.378 5.38416 266.986 4.56864C264.579 3.72752 262.013 3.31818 259.307 3.31818C256.006 3.31818 252.92 3.93145 250.086 5.19331C247.265 6.44876 244.82 8.25881 242.767 10.6028C240.706 12.9559 239.144 15.7686 238.052 18.994L238.052 18.994L238.05 19.0012C236.965 22.2395 236.443 25.8247 236.443 29.7273C236.443 34.9259 237.358 39.5566 239.283 43.5419L239.283 43.542L239.287 43.5497C241.216 47.5093 243.945 50.6387 247.483 52.8479L247.487 52.8507C251.051 55.0653 255.141 56.1364 259.67 56.1364C263.725 56.1364 267.418 55.2861 270.681 53.5156L270.685 53.5134C273.954 51.7319 276.532 49.2064 278.383 45.974C280.272 42.7006 281.17 38.9221 281.17 34.7273V29.7273V27.2273H278.67H260.943H258.443V29.7273V34.7273V37.2273H260.943H270.467C270.232 38.4916 269.835 39.6089 269.295 40.5961L269.292 40.6017C268.377 42.285 267.121 43.5619 265.491 44.4794C263.887 45.3769 261.971 45.8636 259.67 45.8636C257.226 45.8636 255.095 45.2653 253.213 44.101C251.366 42.9589 249.84 41.246 248.669 38.8384C247.529 36.4944 246.898 33.4905 246.898 29.7273C246.898 25.9605 247.522 22.953 248.651 20.6062C249.812 18.1906 251.315 16.479 253.118 15.3417C254.963 14.178 257.005 13.5909 259.307 13.5909C260.763 13.5909 262.046 13.7875 263.176 14.152C264.321 14.5215 265.315 15.047 266.177 15.7205L266.184 15.7255L266.19 15.7306C267.082 16.4173 267.855 17.2535 268.51 18.2552L268.52 18.2702L268.53 18.285C269.206 19.2866 269.768 20.4447 270.203 21.7764Z"
            stroke="white" stroke-width="5"/>
    <path
            d="M231.983 6.45453V3.95453H229.483H223.937H221.437V6.45453V35.7654L200.081 5.02806L199.335 3.95453H198.028H192.574H190.074V6.45453V53V55.5H192.574H198.21H200.71V53V23.7864L221.974 54.4254L222.72 55.5H224.028H229.483H231.983V53V6.45453Z"
            stroke="white" stroke-width="5"/>
    <path
            d="M183.773 6.45453V3.95453H181.273H175.636H173.136V6.45453V53V55.5H175.636H181.273H183.773V53V6.45453Z"
            stroke="white" stroke-width="5"/>
    <path
            d="M127.136 53V55.5H129.636H144C149.053 55.5 153.514 54.5031 157.274 52.3819L157.281 52.3776C161.028 50.2464 163.888 47.1894 165.831 43.2693L165.833 43.2654C167.766 39.3482 168.682 34.7776 168.682 29.6363C168.682 24.5283 167.774 19.9944 165.855 16.1202C163.935 12.2286 161.137 9.19192 157.478 7.0853C153.811 4.95891 149.495 3.95453 144.636 3.95453H129.636H127.136V6.45453V53ZM156.606 20.9577L156.609 20.9625C157.656 23.2776 158.227 26.144 158.227 29.6363C158.227 33.1574 157.649 36.0541 156.586 38.4001C155.551 40.6854 154.012 42.4003 151.939 43.6166C149.894 44.8165 147.175 45.5 143.636 45.5H137.773V13.9545H144.273C147.578 13.9545 150.14 14.622 152.096 15.8005L152.096 15.8005L152.106 15.8063C154.081 16.984 155.578 18.6716 156.606 20.9577Z"
            stroke="white" stroke-width="5"/>
    <path
            d="M88.2953 55.5H90.0607L90.6513 53.8363L94.7401 42.3182H110.032L114.121 53.8363L114.712 55.5H116.477H122.386H125.967L124.733 52.1383L107.642 5.59281L107.041 3.95453H105.295H99.4771H97.7319L97.1303 5.59281L80.0394 52.1383L78.8051 55.5H82.3862H88.2953ZM102.386 20.779L106.482 32.3182H98.29L102.386 20.779Z"
            stroke="white" stroke-width="5"/>
    <path
            d="M69.3662 20.6062L69.3662 20.6062L69.371 20.6161C70.511 22.9602 71.142 25.964 71.142 29.7273C71.142 33.4905 70.511 36.4944 69.371 38.8384L69.3662 38.8484C68.2087 41.2555 66.6964 42.9656 64.8662 44.1049L64.8599 44.1089C63.0057 45.2708 60.9247 45.8636 58.5511 45.8636C56.179 45.8636 54.0886 45.2715 52.2167 44.1071C50.3999 42.9678 48.8848 41.2554 47.7108 38.8433C46.5838 36.4973 45.9602 33.4913 45.9602 29.7273C45.9602 25.9632 46.5838 22.9572 47.7108 20.6111C48.8847 18.1992 50.3997 16.487 52.2164 15.3476C54.0884 14.1831 56.1789 13.5909 58.5511 13.5909C60.9247 13.5909 63.0057 14.1837 64.8599 15.3457L64.8662 15.3496C66.6964 16.4889 68.2087 18.1991 69.3662 20.6062ZM78.6773 43.565C80.656 39.5738 81.5965 34.9346 81.5965 29.7273C81.5965 24.5199 80.656 19.8808 78.6773 15.8896C76.7195 11.9405 73.9887 8.81698 70.4707 6.60961C66.9468 4.39853 62.9479 3.31818 58.5511 3.31818C54.1542 3.31818 50.1553 4.39853 46.6314 6.60961C43.1134 8.81698 40.3826 11.9405 38.4249 15.8896C36.4462 19.8808 35.5056 24.5199 35.5056 29.7273C35.5056 34.9346 36.4462 39.5738 38.4249 43.565C40.3826 47.514 43.1134 50.6376 46.6314 52.8449C50.1553 55.056 54.1542 56.1364 58.5511 56.1364C62.9479 56.1364 66.9468 55.056 70.4707 52.8449C73.9887 50.6376 76.7195 47.514 78.6773 43.565Z"
            stroke="white" stroke-width="5"/>
    <path
            d="M3.13623 53V55.5H5.63623H32.909H35.409V53V48V45.5H32.909H13.7726V6.45453V3.95453H11.2726H5.63623H3.13623V6.45453V53Z"
            stroke="white" stroke-width="5"/>
</svg>